<svg width="436" height="25" viewBox="0 0 436 25" fill="none" xmlns="http://www.w3.org/2000/svg">
<path d="M27.2066 25V10.7486L35.8487 8.37912V25H45.131V0L22.5833 6.4217L0 0V25H9.28226V8.37912L17.9244 10.7486V25H27.2066Z" fill="#E3E3E3"/>
<path d="M83.8146 20.1236H65.4279V5.83791H83.8146V20.1236ZM93.0969 0.961538H56.1456V25H93.0969V0.961538Z" fill="#E3E3E3"/>
<path d="M101.996 0.961538V10.5769L111.278 9.34066V5.83791H117.253V25H126.535V5.83791H132.51V9.34066L141.792 10.5769V0.961538H101.996Z" fill="#E3E3E3"/>
<path d="M178.359 20.1236H159.972V5.83791H178.359V20.1236ZM187.641 0.961538H150.69V25H187.641V0.961538Z" fill="#E3E3E3"/>
<path d="M195.828 0.961538V5.83791H201.127V25H245.547V0.961538H236.265V20.1236H227.978V0.961538H218.696V20.1236H210.41V0.961538H195.828Z" fill="#E3E3E3"/>
<path d="M259.01 12.8434L253.711 14.217V20.364L259.01 18.9904V25H268.292V16.5522L272.595 15.419L284.296 25H295.961V19.8489H289.808L281.415 13.1525L295.747 9.40934V0.961538H286.465V5.66621L268.292 10.4052V0.961538H259.01V12.8434Z" fill="#E3E3E3"/>
<path d="M333.598 20.1236H315.211V5.83791H333.598V20.1236ZM342.88 0.961538H305.929V25H342.88V0.961538Z" fill="#E3E3E3"/>
<path d="M369.383 5.83791H372.584L381.262 25H390.864L380.052 0.961538H355.335V5.83791H359.745L351.068 25H360.706L369.383 5.83791Z" fill="#E3E3E3"/>
<path d="M414.519 5.83791H417.72L421.49 14.114H410.749L414.519 5.83791ZM425.188 0.961538H400.471V5.83791H404.881L396.204 25H405.841L408.544 18.9904H423.695L426.398 25H436L425.188 0.961538Z" fill="#E3E3E3"/>
</svg>
